<svg width="36" height="34" viewBox="0 0 36 34" fill="none" xmlns="http://www.w3.org/2000/svg">
<path fill-rule="evenodd" clip-rule="evenodd" d="M26.7768 11.0197C26.8967 11.1901 26.9998 11.3737 27.0839 11.5686C32.0438 12.9067 35.6952 17.3349 35.6952 22.5771C35.6952 28.8757 30.4243 34 23.9455 34C20.563 34 17.5104 32.6028 15.3646 30.3715H7.2193C5.46624 30.3715 4.03996 28.9849 4.03996 27.2806C4.03996 26.3018 4.51092 25.4283 5.24362 24.8616C4.51092 24.2949 4.03996 23.4215 4.03996 22.4426C4.03996 21.4638 4.51092 20.5904 5.24362 20.0237C4.51092 19.457 4.03996 18.5835 4.03996 17.6047C4.03996 16.6259 4.51092 15.7525 5.24362 15.1857C4.51092 14.619 4.03996 13.7456 4.03996 12.7668C4.03996 11.0625 5.46624 9.67587 7.2193 9.67587H9.02184C8.66991 9.1785 8.46339 8.57679 8.46339 7.92884C8.46339 7.28089 8.66998 6.67917 9.02184 6.18181H3.48703C1.73397 6.18181 0.307693 4.7952 0.307693 3.0909C0.307693 1.38661 1.73397 0 3.48703 0H20.4205C22.1735 0 23.5998 1.38661 23.5998 3.0909C23.5998 3.73885 23.3932 4.34057 23.0413 4.83794H28.5762C30.3292 4.83794 31.7555 6.22454 31.7555 7.92884C31.7555 9.63314 30.3292 11.0197 28.5762 11.0197H26.7768ZM30.3732 7.92884C30.3732 6.96555 29.5671 6.18181 28.5762 6.18181H11.6427C10.6518 6.18181 9.84571 6.96555 9.84571 7.92884C9.84571 8.89213 10.6518 9.67587 11.6427 9.67587H24.1527H28.5762C29.5671 9.67587 30.3732 8.89213 30.3732 7.92884ZM1.69001 3.0909C1.69001 4.05419 2.49611 4.83794 3.48703 4.83794H20.4205C21.4114 4.83794 22.2175 4.05419 22.2175 3.0909C22.2175 2.12762 21.4114 1.34387 20.4205 1.34387H3.48703C2.49611 1.34387 1.69001 2.12762 1.69001 3.0909ZM24.1527 11.0197H7.2193C6.22845 11.0197 5.42228 11.8035 5.42228 12.7668C5.42228 13.7301 6.22845 14.5138 7.2193 14.5138H15.6309C17.7592 12.4395 20.7008 11.1542 23.9455 11.1542C24.2794 11.1542 24.6099 11.1686 24.9369 11.1953C24.6977 11.0826 24.4311 11.0197 24.1527 11.0197ZM14.4499 15.8577H7.2193C6.22838 15.8577 5.42228 16.6414 5.42228 17.6047C5.42228 18.5681 6.22838 19.3517 7.2193 19.3517H12.6734C13.0586 18.0814 13.6653 16.9027 14.4499 15.8577ZM12.356 20.6956H7.2193C6.22838 20.6956 5.42228 21.4793 5.42228 22.4426C5.42228 23.406 6.22838 24.1897 7.2193 24.1897H12.3134C12.2364 23.6627 12.1957 23.1245 12.1957 22.5771C12.1957 21.9363 12.2512 21.3079 12.356 20.6956ZM5.42228 27.2806C5.42228 28.2439 6.22838 29.0276 7.2193 29.0276H14.2539C13.5109 27.9758 12.9443 26.7977 12.5956 25.5335H7.2193C6.22838 25.5335 5.42228 26.3172 5.42228 27.2806ZM13.578 22.5771C13.578 28.1347 18.2289 32.6561 23.9455 32.6561C29.662 32.6561 34.3129 28.1347 34.3129 22.5771C34.3129 17.0195 29.662 12.4981 23.9455 12.4981C18.2289 12.4981 13.578 17.0195 13.578 22.5771ZM22.1824 20.2802C22.1824 21.0967 22.9718 21.7609 23.9421 21.7609C25.7945 21.7609 27.3016 23.1228 27.3016 24.7969C27.3016 26.2219 26.2094 27.42 24.742 27.7452V28.0811C24.742 28.5105 24.3838 28.8588 23.9421 28.8588C23.5005 28.8588 23.1423 28.5105 23.1423 28.0811V27.7452C21.6748 27.42 20.5827 26.2219 20.5827 24.7969C20.5827 24.3675 20.9409 24.0193 21.3826 24.0193C21.8243 24.0193 22.1824 24.3675 22.1824 24.7969C22.1824 25.6134 22.9718 26.2776 23.9421 26.2776C24.9125 26.2776 25.7018 25.6134 25.7018 24.7969C25.7018 23.9804 24.9125 23.3161 23.9421 23.3161C22.0897 23.3161 20.5827 21.9542 20.5827 20.2802C20.5827 18.8553 21.6748 17.6571 23.1423 17.3319V16.9275C23.1423 16.4981 23.5005 16.1499 23.9421 16.1499C24.3838 16.1499 24.742 16.4981 24.742 16.9275V17.3319C26.2094 17.6571 27.3016 18.8553 27.3016 20.2802C27.3016 20.7096 26.9434 21.0579 26.5017 21.0579C26.06 21.0579 25.7018 20.7096 25.7018 20.2802C25.7018 19.4637 24.9125 18.7995 23.9421 18.7995C22.9718 18.7995 22.1824 19.4637 22.1824 20.2802Z" fill="#FF0035"/>
</svg>
